<svg width="260" height="219" viewBox="0 0 260 219" fill="none" xmlns="http://www.w3.org/2000/svg">
<path fill-rule="evenodd" clip-rule="evenodd" d="M256.864 139.557H191.793C190.101 139.557 188.716 138.173 188.716 136.48V91.1629C188.716 89.4706 190.101 88.0859 191.793 88.0859H256.864C258.557 88.0859 259.941 89.4706 259.941 91.1629V136.48C259.941 138.173 258.557 139.557 256.864 139.557Z" fill="#C3E4FF"/>
<path fill-rule="evenodd" clip-rule="evenodd" d="M259.941 91.1611V98.0466H188.716V91.1611C188.716 89.4701 189.851 88.0845 191.238 88.0845H257.419C258.807 88.0845 259.941 89.4701 259.941 91.1611Z" fill="#E8F6FF"/>
<path fill-rule="evenodd" clip-rule="evenodd" d="M259.941 58.4983H188.716V56.8101H259.941V58.4983Z" fill="#D6EEFF"/>
<path fill-rule="evenodd" clip-rule="evenodd" d="M259.941 68.2619H188.716V66.5737H259.941V68.2619Z" fill="#D6EEFF"/>
<path fill-rule="evenodd" clip-rule="evenodd" d="M259.941 73.1439H188.716V71.4556H259.941V73.1439Z" fill="#D6EEFF"/>
<path fill-rule="evenodd" clip-rule="evenodd" d="M239.129 78.0258H188.716V76.3374H239.129V78.0258Z" fill="#D6EEFF"/>
<path fill-rule="evenodd" clip-rule="evenodd" d="M259.941 63.3801H188.716V61.6919H259.941V63.3801Z" fill="#D6EEFF"/>
<path fill-rule="evenodd" clip-rule="evenodd" d="M259.941 53.1329H212.819V49.5236H259.941V53.1329Z" fill="#C3E4FF"/>
<path fill-rule="evenodd" clip-rule="evenodd" d="M212.819 43.0282H259.941V40.8297H212.819V43.0282Z" fill="#D6EEFF"/>
<path fill-rule="evenodd" clip-rule="evenodd" d="M212.819 37.9674H259.941V35.7689H212.819V37.9674Z" fill="#D6EEFF"/>
<path fill-rule="evenodd" clip-rule="evenodd" d="M212.819 31.1661H239.129V26.1057H212.819V31.1661Z" fill="#C3E4FF"/>
<path fill-rule="evenodd" clip-rule="evenodd" d="M208.384 35.4291C208.384 39.9116 206.562 43.9691 203.618 46.9002C200.691 49.8177 196.65 51.621 192.192 51.621C187.733 51.621 183.695 49.8194 180.767 46.9002C177.822 43.9708 176 39.9134 176 35.4291C176 26.4864 183.249 19.2372 192.192 19.2372C201.135 19.2372 208.384 26.4864 208.384 35.4291Z" fill="#B8DFFF"/>
<path d="M195.293 36.375C194.273 36.375 193.816 36.9375 192.164 36.9375C190.477 36.9375 190.02 36.375 189 36.375C186.398 36.375 184.289 38.5195 184.289 41.1211V42.5625C184.289 43.5117 185.027 44.25 185.977 44.25H198.352C199.266 44.25 200.039 43.5117 200.039 42.5625V41.1211C200.039 38.5195 197.895 36.375 195.293 36.375ZM198.914 42.5625C198.914 42.8789 198.633 43.125 198.352 43.125H185.977C185.66 43.125 185.414 42.8789 185.414 42.5625V41.1211C185.414 39.1172 186.996 37.5 189 37.5C189.703 37.5 190.371 38.0625 192.164 38.0625C193.922 38.0625 194.625 37.5 195.293 37.5C197.297 37.5 198.914 39.1172 198.914 41.1211V42.5625ZM192.164 35.25C194.625 35.25 196.664 33.2461 196.664 30.75C196.664 28.2891 194.625 26.25 192.164 26.25C189.668 26.25 187.664 28.2891 187.664 30.75C187.664 33.2461 189.668 35.25 192.164 35.25ZM192.164 27.375C193.992 27.375 195.539 28.9219 195.539 30.75C195.539 32.6133 193.992 34.125 192.164 34.125C190.301 34.125 188.789 32.6133 188.789 30.75C188.789 28.9219 190.301 27.375 192.164 27.375Z" fill="white"/>
<path d="M258.089 161.652H2.21484" stroke="#D6EEFF" stroke-width="3" stroke-linecap="round"/>
<rect x="1" y="0.779785" width="114.245" height="129.749" rx="6" fill="#CCE9E8"/>
<path fill-rule="evenodd" clip-rule="evenodd" d="M4.85769 0.779785H111.866C113.997 0.779785 115.724 2.55283 115.724 4.74V11.6498H1V4.74C1 2.55283 2.72715 0.779785 4.85769 0.779785Z" fill="#AFB3C6"/>
<path fill-rule="evenodd" clip-rule="evenodd" d="M7.75098 9.2486C9.25827 9.2486 10.4802 7.99422 10.4802 6.44687C10.4802 4.89952 9.25827 3.64514 7.75098 3.64514C6.24369 3.64514 5.02179 4.89952 5.02179 6.44687C5.02179 7.99422 6.24369 9.2486 7.75098 9.2486Z" fill="#DFE2E8"/>
<path fill-rule="evenodd" clip-rule="evenodd" d="M16.6588 9.2486C18.1661 9.2486 19.388 7.99422 19.388 6.44687C19.388 4.89952 18.1661 3.64514 16.6588 3.64514C15.1515 3.64514 13.9296 4.89952 13.9296 6.44687C13.9296 7.99422 15.1515 9.2486 16.6588 9.2486Z" fill="#DFE2E8"/>
<path fill-rule="evenodd" clip-rule="evenodd" d="M25.5647 9.2486C27.072 9.2486 28.2939 7.99422 28.2939 6.44687C28.2939 4.89952 27.072 3.64514 25.5647 3.64514C24.0574 3.64514 22.8355 4.89952 22.8355 6.44687C22.8355 7.99422 24.0574 9.2486 25.5647 9.2486Z" fill="#DFE2E8"/>
<rect x="1" y="11.6499" width="114.726" height="15.5471" fill="#61697E"/>
<path fill-rule="evenodd" clip-rule="evenodd" d="M9.8039 23.6599C12.0825 23.6599 13.9297 21.7636 13.9297 19.4244C13.9297 17.0852 12.0825 15.189 9.8039 15.189C7.52529 15.189 5.6781 17.0852 5.6781 19.4244C5.6781 21.7636 7.52529 23.6599 9.8039 23.6599Z" fill="white"/>
<rect x="18.5876" y="16.8551" width="19.4345" height="5.1413" fill="white"/>
<path d="M110.75 16.4954H102.625" stroke="white" stroke-width="4.75"/>
<path d="M110.75 19.1347H102.625" stroke="white" stroke-width="4.75"/>
<path d="M110.75 21.7745H102.625" stroke="white" stroke-width="4.75"/>
<ellipse cx="58.5" cy="80.284" rx="29.5" ry="30.284" fill="#36B27E"/>
<path d="M52.4846 94.0488C53.2093 94.7928 54.4414 94.7928 55.1661 94.0488L76.4731 72.1755C77.1978 71.4315 77.1978 70.1667 76.4731 69.4228L73.8641 66.7444C73.1393 66.0004 71.9798 66.0004 71.2551 66.7444L53.8616 84.6001L45.6722 76.2674C44.9474 75.5235 43.7879 75.5235 43.0631 76.2674L40.4541 78.9458C39.7294 79.6898 39.7294 80.9546 40.4541 81.6986L52.4846 94.0488Z" fill="white"/>
<path fill-rule="evenodd" clip-rule="evenodd" d="M134.237 211.843L134.17 206.034L141.666 202.262L142.754 218.867H116.782C121.201 213.894 134.237 211.843 134.237 211.843ZM167.506 212.069L167.438 205.545L172.325 209.521L176.258 211.708L177.556 218.867H159.78C162.015 212.785 167.506 212.069 167.506 212.069Z" fill="#185463"/>
<path fill-rule="evenodd" clip-rule="evenodd" d="M167.438 205.545L174.934 203.295L176.258 211.708L167.506 212.069L167.438 205.545ZM134.17 206.034L141.666 203.784L142.27 211.482L134.237 211.843L134.17 206.034Z" fill="#E5AC95"/>
<path d="M131.566 209.521H133.267H143.156H143.747C144.855 209.077 144.881 202.602 144.908 201.341L146.5 120.599L163.698 202.115C163.94 203.261 165.438 209.192 166.519 209.521H176.887C177.751 208.852 177.359 202.188 177.186 201.013L161.353 92.9735L147.045 92.9735L147.045 92.9323H129.715L130.754 201.19C130.768 202.613 130.231 209.195 131.566 209.521Z" fill="#2F2F3D"/>
<path opacity="0.197824" fill-rule="evenodd" clip-rule="evenodd" d="M146.589 121.878L143.554 108.439L145.837 149.181L146.589 121.878Z" fill="black"/>
<path fill-rule="evenodd" clip-rule="evenodd" d="M99.9602 71.3481L101.525 72.6994C101.525 72.6994 105.601 78.0155 108.825 80.7822C112.038 83.5389 116.055 85.9406 117.949 85.94C120.36 85.9393 128.455 80.088 128.455 80.088L127.078 75.7879L119.503 73.726C119.503 73.726 118.125 76.1347 117.092 76.135C116.059 76.1353 105.041 67.1936 105.041 67.1936L101.527 64.2658C101.527 64.2658 100.697 63.6885 100.527 62.1427C100.358 60.5969 99.2597 58.7415 100.504 56.0627C101.747 53.384 98.8532 55.1689 98.1972 56.4397C97.5409 57.7104 98.0175 60.7333 96.7093 60.8701C95.4013 61.007 92.3712 59.7796 91.4082 60.2547C90.4458 60.7299 90.0983 62.4472 90.5104 62.9282C90.5104 62.9282 89.0629 64.6527 89.9196 66.3972C89.9196 66.3972 89.4833 67.8513 90.569 68.9052C90.569 68.9052 90.4972 70.4852 91.9764 70.8637C93.4556 71.2421 97.1037 71.3123 99.9602 71.3481Z" fill="#E5AC95"/>
<path d="M96.5389 62.2777C96.5258 63.0805 95.2601 63.3929 95.2601 63.3929C95.2601 63.3929 96.3259 63.7026 96.2519 64.78C96.1862 65.7374 94.8479 65.9778 94.8479 65.9778C94.8479 65.9778 96.1453 66.2746 96.0923 67.3681C96.0299 68.6595 94.3961 68.737 94.3961 68.737C94.3961 68.737 95.9359 68.7742 95.8282 69.9516C95.725 71.0814 94.2935 70.8921 94.2935 70.8921" stroke="black" stroke-opacity="0.3" stroke-linecap="round"/>
<path d="M90.5059 62.9233L95.2581 63.391" stroke="black" stroke-opacity="0.3"/>
<path d="M89.917 66.391L94.8471 65.9757" stroke="black" stroke-opacity="0.3"/>
<path d="M90.568 68.898L94.3965 68.735" stroke="black" stroke-opacity="0.3"/>
<path fill-rule="evenodd" clip-rule="evenodd" d="M147.725 53.8229C150.767 53.8336 154.982 53.8422 154.982 53.8422C154.982 53.8422 152.696 59.0105 145.782 59.4371C138.867 59.8632 140.858 55.158 140.858 55.158C140.858 55.158 144.683 53.812 147.725 53.8229ZM172.625 72.5243C172.625 72.5243 179.23 81.8275 179.081 87.2457C178.905 93.6341 161.712 108.64 161.712 108.64L156.354 104.329L170.301 86.4545L164.637 76.45L172.625 72.5243Z" fill="#E5AC95"/>
<path d="M155.391 103.464C155.391 103.464 157.435 106.785 162.884 109.465" stroke="#0D0D11" stroke-width="2"/>
<path d="M161.906 97.2156C161.906 97.2156 165.996 92.5748 166.685 91.0988C167.374 89.6228 165.652 82.6719 165.652 82.6719L168.235 85.0796C168.235 85.0796 175.984 84.3917 179.083 84.3917C179.435 77.87 174.403 70.8772 174.403 70.8772C174.403 70.8772 169.186 60.7233 163.092 55.5687C161.388 54.776 157.256 54.1148 154.752 53.842C153.984 53.7584 154.443 54.0566 154.179 54.5613C153.904 55.0886 153.066 55.8699 152.486 56.4539C151.279 57.6695 148.901 58.5899 147.623 58.7783C146.65 58.9219 144.768 59.1447 143.863 59.0235C142.958 58.9023 141.974 58.4949 141.711 58.2529C141.448 58.0109 141.057 57.7081 140.854 57.2416C140.651 56.7752 140.661 56.9088 140.661 56.4785C140.661 56.0482 140.683 56.1119 140.726 55.9071C140.768 55.7023 140.768 55.5792 140.793 55.4734C140.903 55.0051 140.854 55.0688 140.854 55.0688C135.952 56.5448 133.469 57.091 131.683 59.2383L117.764 74.073L120.193 76.8246L122.087 78.7164L124.67 81.2961C124.67 81.2961 125.531 82.3279 127.081 83.1878C127.598 82.6719 128.114 82.3279 129.804 80.7842L127.168 94.1226C126.746 96.4256 128.768 97.2971 130.571 97.2156H161.906Z" fill="#72A065"/>
<path opacity="0.201242" fill-rule="evenodd" clip-rule="evenodd" d="M129.845 80.7912L131.476 74.3649L127.072 83.1473L129.845 80.7912Z" fill="black"/>
<path opacity="0.201242" fill-rule="evenodd" clip-rule="evenodd" d="M165.561 82.7341L163.93 76.3077L168.334 85.0902L165.561 82.7341Z" fill="black"/>
<path fill-rule="evenodd" clip-rule="evenodd" d="M131.81 29.1141C131.81 29.1141 125.457 37.5638 134.082 39.8068L131.81 29.1141Z" fill="#19141E"/>
<path d="M143.647 58.1609L143.858 50.7105C143.858 50.7105 134.766 51.4313 132.868 50.4252C132.868 50.4252 131.426 41.372 132.797 34.9531L140.263 28.0729L152.312 28.9782L153.679 40.1083C154.31 38.2101 160.049 35.8305 161.427 40.0888C163.203 45.5799 152.963 48.4655 152.963 48.4655L153.792 55.7868" fill="#E5AC95"/>
<path d="M157.854 28.5541C156.777 27.3907 155.588 26.2583 154.156 25.3663C148.782 22.0185 144.538 24.6281 144.538 24.6281C144.538 24.6281 142.825 17.2957 138.084 17.3168C131.33 17.3465 130.287 27.9979 130.287 27.9979C130.287 27.9979 126.883 22.2052 124.947 23.0332C123.012 23.8614 122.958 43.1011 149.833 33.725C149.833 33.725 147.522 39.0309 153.679 40.1085C153.679 40.1085 154.753 37.8437 158.392 37.7157C158.392 37.7157 163.989 35.3915 157.854 28.5541Z" fill="#19141E"/>
<path opacity="0.1" fill-rule="evenodd" clip-rule="evenodd" d="M143.858 50.7104L149.839 49.4014L143.887 53.5056L143.858 50.7104Z" fill="black"/>
<path fill-rule="evenodd" clip-rule="evenodd" d="M141.281 40.0009C141.158 40.6954 141.61 41.3603 142.29 41.4858C142.971 41.6115 143.622 41.1504 143.745 40.4558C143.868 39.7613 143.416 39.0964 142.736 38.971C142.055 38.8453 141.404 39.3063 141.281 40.0009Z" fill="black"/>
<path d="M141.281 40.0009C141.158 40.6954 141.61 41.3603 142.29 41.4858C142.971 41.6115 143.622 41.1504 143.745 40.4558C143.868 39.7613 143.416 39.0964 142.736 38.971C142.055 38.8453 141.404 39.3063 141.281 40.0009" stroke="#E5AC95"/>
<path fill-rule="evenodd" clip-rule="evenodd" d="M134.78 40.0009C134.657 40.6954 135.109 41.3603 135.79 41.4858C136.47 41.6115 137.121 41.1504 137.244 40.4558C137.368 39.7613 136.916 39.0964 136.235 38.971C135.555 38.8453 134.904 39.3063 134.78 40.0009Z" fill="black"/>
<path d="M134.78 40.0009C134.657 40.6954 135.109 41.3603 135.79 41.4858C136.47 41.6115 137.121 41.1504 137.244 40.4558C137.368 39.7613 136.916 39.0964 136.235 38.971C135.555 38.8453 134.904 39.3063 134.78 40.0009" stroke="#E5AC95"/>
<path fill-rule="evenodd" clip-rule="evenodd" d="M142.012 45.5039C142.012 45.5039 141.216 46.9788 139.498 46.9438L142.012 45.5039Z" fill="white"/>
<path d="M142.012 45.5039C142.012 45.5039 141.216 46.9788 139.498 46.9438" stroke="#252535"/>
</svg>
