<?xml version="1.0" encoding="utf-8"?>
<!-- Generator: Adobe Illustrator 17.1.0, SVG Export Plug-In . SVG Version: 6.00 Build 0)  -->
<!DOCTYPE svg PUBLIC "-//W3C//DTD SVG 1.1//EN" "http://www.w3.org/Graphics/SVG/1.1/DTD/svg11.dtd">
<svg version="1.1" id="bike-10" xmlns="http://www.w3.org/2000/svg" xmlns:xlink="http://www.w3.org/1999/xlink" x="0px" y="0px"
	 viewBox="0 0 1009.9999 681.922" enable-background="new 0 0 1009.9999 681.922" xml:space="preserve">
<path id="bike-10-bike-10" fill="#3E5266" d="M35.6488,370.7723c-42.1699,54.9043-47.8144,145.7901-12.1816,205.5703
	c19.8652,36.1661,53.582,66.5225,89.9424,84.1338c70.6513,34.8643,163.2168,25.4903,223.9297-24.7314
	c44.4023-36.1563,68.5918-83.007,73.8369-135.8623l1.3017-0.9326l30.1719,0.5537c2.4385,18.1855,14.0459,35.4179,30.9404,44.9873
	c7.1104,3.3701,14.4253,5.8086,22.4883,6.7509v53.962h-38.2451l-0.3589,40.4785l96.1211,0.3788V605.204h-38.6152l-0.3692-53.6036
	c20.0508-3.7392,40.4805-20.039,47.2207-40.0996c7.5-21.1767,1.3223-44.7812-13.4824-60.7129l119.541-231.0605
	c-0.1738-0.3687,0.1953-0.748,0.3887-0.9219c14.252,28.6558,25.502,59.3916,39.168,88.6211
	c-67.6582,34.6641-115.0528,104.5625-111.877,182.1494c0.9318,73.8369,50.9688,142.419,117.3068,173.1651
	c75.7128,35.9707,176.33,20.4082,236.4803-38.7891c53.4082-52.6807,72.711-121.0674,53.2246-193.7773
	c-18.9238-72.8848-94.4414-133.2344-167.9199-141.6709c-29.209-5.0616-60.3242-2.8076-87.668,4.8867l-43.4902-97.4522
	L646.7245,64.5741l-9.3652-20.7979c27.5293-3.7549,58.0918,0,87.7207-3.0117c12.9179,0.9575,25.2754,3.5752,34.6484,13.877
	c6.1778,11.0547,13.3086,24.7373,7.1309,38.2246c-3.002,9.1904-12.1914,15.9365-20.6328,19.3022
	c-16.1055,1.6851-38.2149-2.2339-43.2774,17.6113c-1.6894,5.814,0.7383,11.065,3.1875,15.7369
	c9.1895,15.373,29.4238,6.3828,43.0801,7.6943c25.5-4.498,52.8652-25.1064,58.1113-51.7231
	c9.7539-27.9131-2.2539-54.5303-17.9902-75.7071C752.7929-14.5089,693.5761,5.3622,644.4901,1.9862
	c-22.3144,1.6748-47.6093,0.5532-70.6504,0.9424V5.162l46.8516,101.5761l24.7109,57.1582H326.1107l-33.7685-51.1645l1.8955-5.061
	l69.6982-0.3789c8.4317-1.6758,17.4473-7.6792,20.6436-16.2901c2.623-7.8838,1.3115-17.248-3.5752-23.8203
	c-4.8565-5.2402-10.481-8.98-17.0684-9.9228l-112.9638,0.5791c-23.646,0.3637-55.4981,4.1035-66.9112,30.9101
	c-4.1191,10.3115-0.9531,22.1089,5.7984,30.167c17.0688,19.3018,44.2387,23.2305,69.145,17.6113l32.0576,48.5469l-36.5654,105.6948
	C171.4999,272.9569,87.5507,300.87,35.6488,370.7723z M724.1171,346.5946l55.8672,127.6035
	c-1.8867,6.0039-2.8281,13.8926-0.5957,19.8857c3.1875,11.0547,14.2422,20.7979,25.6855,22.4786
	c9.7539,0.747,20.2344-1.875,27.3653-9.9278c7.2949-7.8681,9.5371-18.7392,7.664-29.2402
	c-2.039-11.4131-12.1523-21.5459-23.4004-24.3428l-53.039-121.436c36.164-7.5044,76.4394-4.8765,108.5058,9.9223
	c51.7188,21.1817,91.2539,74.5899,95.752,127.2403c5.9941,53.2246-20.9922,113.1894-72.9043,145.4209
	c-47.3848,32.6006-122.9219,34.8546-173.1543,6.751c-38.9727-20.6231-69.1348-57.9258-79.6153-98.9473
	c-15.1953-56.6055,5.0293-121.2529,55.2833-159.6514C706.3202,356.5321,714.9374,349.4217,724.1171,346.5946z M368.4437,457.5292
	H241.0238c13.124-37.8565,25.6641-76.6338,39.1778-113.7422C324.6044,364.4003,360.3808,410.8827,368.4437,457.5292z
	 M452.4135,355.036L353.455,205.3075l275.2793,0.3789l-12.9297,24.7373l-104.0195,201.626l-9.3443-0.5645L452.4135,355.036z
	 M410.6127,457.5292c-6.7412-63.8995-56.2256-126.6822-116.9385-153.2837c8.6162-25.106,17.0479-50.0376,25.6846-75.1436
	l12.54,19.312l130.4424,198.4502l-9.395,10.6651H410.6127z M62.6244,404.5106c38.419-59.9658,108.1484-88.4575,178.0205-74.2168
	L197.912,453.9637c-9.3638,1.6905-18.9126,9.0157-22.8569,18.001c-5.9932,10.8701-3.1758,25.8584,4.5078,35.0488
	c6.9463,7.6739,15.5522,11.2393,26.0332,10.8604c10.8804-0.3799,21.0029-8.8115,25.6846-18.3701l138.4951,0.3789
	c-6.0142,42.7334-27.9287,81.8896-65.2212,108.3125c-49.6587,38.9834-129.3052,41.79-183.1128,9.9277
	c-23.0415-12.9189-45.8779-34.291-59.3711-57.1377C33.9682,516.7567,33.3842,447.9911,62.6244,404.5106z"/>
</svg>
