<?xml version="1.0" encoding="utf-8"?>
<!-- Generator: Adobe Illustrator 19.0.0, SVG Export Plug-In . SVG Version: 6.00 Build 0)  -->
<svg version="1.1" xmlns="http://www.w3.org/2000/svg" xmlns:xlink="http://www.w3.org/1999/xlink" x="0px" y="0px"
	 viewBox="0 0 64 64" style="enable-background:new 0 0 64 64;" xml:space="preserve">
<style type="text/css">
	.st0{display:none;}
	.st1{display:inline;fill:#FFFFFF;}
	.st2{display:inline;fill:none;stroke:#4C5159;stroke-width:2;stroke-miterlimit:10;}
	.st3{display:inline;}
	.st4{fill:none;stroke:#4C5159;stroke-width:2;stroke-miterlimit:10;}
	.st5{display:inline;fill:none;stroke:#4C5159;stroke-width:2;stroke-miterlimit:10;stroke-dasharray:2;}
	.st6{display:inline;fill:none;stroke:#4C5159;stroke-width:2;stroke-linecap:round;stroke-miterlimit:10;}
	.st7{display:inline;fill:none;stroke:#4C5159;stroke-width:2;stroke-miterlimit:10;stroke-dasharray:1.9857,1.9857;}
	.st8{fill:none;stroke:#4C5159;stroke-width:2;stroke-linecap:round;stroke-miterlimit:10;}
	.st9{fill:none;stroke:#4C5159;stroke-width:2;stroke-miterlimit:10;stroke-dasharray:1.9857,1.9857;}
	.st10{fill:#4C5159;}
	.st11{font-family:'Montserrat-Bold';}
	.st12{font-size:7px;}
	.st13{display:inline;fill:#74E2F0;}
	.st14{display:inline;fill:#FBDA73;}
	.st15{display:inline;fill:#F08E70;}
</style>
<g id="bg" class="st0">
	<rect id="XMLID_119_" x="-218" y="-268.2" class="st1" width="500" height="600.3"/>
</g>
<g id="guideline" class="st0">
</g>
<g id="icons">
	<g id="XMLID_2_" class="st0">
		<path id="XMLID_153_" class="st2" d="M14.4,53.3v-7.1c0-0.9,0.6-1.6,1.4-1.9L27,40.5v-4.3"/>
		<path id="XMLID_157_" class="st2" d="M49.6,53.3v-7.1c0-0.9-0.6-1.6-1.4-1.9L37,40.5v-4.3"/>
		<path id="XMLID_8_" class="st2" d="M22,25.5l0.1,0.3c0.2,0.9,1,1.6,1.9,1.7l0.4,4.5c0.1,1.4,0.9,2.6,2.1,3.3l4.1,2.7h2.7l4.3-2.7
			c1.2-0.6,2-1.9,2.1-3.3l0.4-4.5c0.8-0.2,1.4-0.9,1.6-1.7l0.1-0.3c0.2-0.9-0.4-1.8-1.3-1.9l0.1-3.8"/>
		<polyline id="XMLID_7_" class="st2" points="27,40.5 30.2,44.1 34,44.1 37.2,40.5 		"/>
		<path id="XMLID_175_" class="st2" d="M44.5,10.7v3.8c0,2-1.7,3.7-3.7,3.7H26.1c-1,0-1.8,0.8-1.8,1.8v3.4c0,0.2-0.2,0.4-0.4,0.4
			h-1.8c-0.2,0-0.4-0.2-0.4-0.4v-8c0.4-1.3,1.7-1.3,2.3-1.2c0.2,0,0.3-0.1,0.3-0.3c0.2-1.9,1.8-3.3,3.7-3.3H44.5z"/>
	</g>
	<g id="XMLID_17_" class="st0">
		<path id="XMLID_70_" class="st2" d="M14.4,54.6v-6.1c0-0.9,0.6-1.6,1.4-1.9L27,42.7v-4.3"/>
		<path id="XMLID_68_" class="st2" d="M49.6,54.6v-6.1c0-0.9-0.6-1.6-1.4-1.9L37,42.7v-4.3"/>
		<path id="XMLID_13_" class="st2" d="M40.6,23l-0.1,2.8c0.9,0.1,1.5,1,1.3,1.9l-0.1,0.3c-0.2,0.8-0.8,1.4-1.6,1.7l-0.4,4.5
			c-0.1,1.4-0.9,2.6-2.1,3.3l-4.3,2.7h-2.7l-4.1-2.7c-1.2-0.6-2-1.9-2.1-3.3L24,29.8c-0.9-0.2-1.6-0.8-1.9-1.7L22,27.7
			c-0.2-1,0.5-1.9,1.5-1.9h0.1L23.5,23h9.9c2.5,0,4.5-2,4.5-4.5"/>
		<polyline id="XMLID_59_" class="st2" points="27,42.7 31.2,52.7 32.8,52.7 37,42.7 		"/>
		<path id="XMLID_15_" class="st2" d="M43.4,25.1v-4.3c0-6.3-5.1-11.4-11.4-11.4h0c-6.3,0-11.4,5.1-11.4,11.4v4.3"/>
		<line id="XMLID_16_" class="st2" x1="20.6" y1="30.7" x2="20.6" y2="44.7"/>
		<line id="XMLID_14_" class="st2" x1="43.4" y1="31.1" x2="43.4" y2="45.1"/>
	</g>
	<g id="XMLID_44_" class="st0">
		<g id="XMLID_40_" class="st3">
			<path id="XMLID_25_" class="st4" d="M28.7,12.7h8c2.2,0,4.2,1.2,5.3,3.1l6,10.8c0.2,0.4,0.4,0.8,0.4,1.3l2.9,22.5
				c0.2,1.3-0.8,2.4-2.1,2.4l0,0c-0.9,0-1.8-0.6-2.1-1.5l-5.8-19.1c-0.1-0.4-0.8-0.5-0.9,0l-2,6c-0.5,1-1.4,1.1-2.5,1.1l0,0
				c-1.3,0-2.5-0.5-2.7-1.8l-1.7-12.1h-2.7"/>
			<path id="XMLID_29_" class="st4" d="M14.3,10.1h11.5c0.2,0,0.4,0.2,0.4,0.4v19.6c0,0.2-0.2,0.4-0.4,0.4H14.3"/>
			<path id="XMLID_36_" class="st4" d="M42.4,36L42,39.7c-0.1,0.7-0.3,1.3-0.8,1.8l-5.9,6.4c-0.7,0.8-0.8,1.9-0.2,2.8l0,0
				c0.8,1.2,2.5,1.3,3.5,0.3l6.3-6.5"/>
		</g>
		<line id="XMLID_48_" class="st5" x1="12.7" y1="53.9" x2="36.4" y2="53.9"/>
	</g>
	<g id="XMLID_50_" class="st0">
		<path id="XMLID_77_" class="st2" d="M35.1,43.2v7.5c0,1.2-0.9,2.1-2.1,2.1H12.5c-1.2,0-2.1-0.9-2.1-2.1V13.3
			c0-1.2,0.9-2.1,2.1-2.1H33c1.2,0,2.1,0.9,2.1,2.1v6.8"/>
		<line id="XMLID_54_" class="st2" x1="10.4" y1="17.5" x2="35.1" y2="17.5"/>
		<line id="XMLID_53_" class="st2" x1="18.8" y1="14.5" x2="26.7" y2="14.5"/>
		<line id="XMLID_52_" class="st2" x1="10.4" y1="46.5" x2="35.1" y2="46.5"/>
		<path id="XMLID_65_" class="st2" d="M37.4,37.7c0,0.9-0.4,1.7-1,2.3c-0.6,0.6-1.4,1-2.3,1c-0.9,0-1.7-0.4-2.3-1s-1-1.4-1-2.3
			s0.4-1.7,1-2.3c0.6-0.6,1.4-1,2.3-1c0.9,0,1.7,0.4,2.3,1C37,36,37.4,36.8,37.4,37.7z"/>
		<path id="XMLID_66_" class="st2" d="M37.4,25.7c0,0.9-0.4,1.7-1,2.3c-0.6,0.6-1.4,1-2.3,1c-0.9,0-1.7-0.4-2.3-1
			c-0.6-0.6-1-1.4-1-2.3s0.4-1.7,1-2.3c0.6-0.6,1.4-1,2.3-1c0.9,0,1.7,0.4,2.3,1C37,24,37.4,24.8,37.4,25.7z"/>
		<path id="XMLID_71_" class="st2" d="M25.8,31.7c0,0.9-0.4,1.7-1,2.3c-0.6,0.6-1.4,1-2.3,1c-0.9,0-1.7-0.4-2.3-1
			c-0.6-0.6-1-1.4-1-2.3c0-0.9,0.4-1.7,1-2.3c0.6-0.6,1.4-1,2.3-1c0.9,0,1.7,0.4,2.3,1C25.5,30,25.8,30.8,25.8,31.7z"/>
		<line id="XMLID_75_" class="st2" x1="25.3" y1="30" x2="31.3" y2="27.5"/>
		<line id="XMLID_76_" class="st2" x1="25.3" y1="33.5" x2="31.3" y2="36"/>
		<path id="XMLID_73_" class="st2" d="M53.3,22.3H41.4c-0.1,0-0.2-0.1-0.2-0.2v-9.6c0-0.1,0.1-0.2,0.2-0.2h11.9
			c0.1,0,0.2,0.1,0.2,0.2v9.6C53.6,22.2,53.5,22.3,53.3,22.3z"/>
		<path id="XMLID_79_" class="st2" d="M53.3,36.3H41.4c-0.1,0-0.2-0.1-0.2-0.2v-9.6c0-0.1,0.1-0.2,0.2-0.2h11.9
			c0.1,0,0.2,0.1,0.2,0.2v9.6C53.6,36.2,53.5,36.3,53.3,36.3z"/>
		<path id="XMLID_80_" class="st2" d="M53.3,50.3H41.4c-0.1,0-0.2-0.1-0.2-0.2v-9.6c0-0.1,0.1-0.2,0.2-0.2h11.9
			c0.1,0,0.2,0.1,0.2,0.2v9.6C53.6,50.2,53.5,50.3,53.3,50.3z"/>
		<path id="XMLID_423_" class="st2" d="M49.7,17.4L45.1,20c-0.1,0-0.2,0-0.2-0.1v-5.3c0-0.1,0.1-0.2,0.2-0.1l4.6,2.7
			C49.8,17.2,49.8,17.3,49.7,17.4L45.1,20c-0.1,0-0.2,0-0.2-0.1v-5.3c0-0.1,0.1-0.2,0.2-0.1l4.6,2.7C49.8,17.2,49.8,17.3,49.7,17.4z
			"/>
		<polyline id="XMLID_81_" class="st2" points="41.2,33.7 44.9,33.7 47,31.6 49.2,33.5 53.6,33.5 		"/>
		<line id="XMLID_85_" class="st2" x1="49" y1="29" x2="51.2" y2="29"/>
		<polyline id="XMLID_86_" class="st2" points="43.2,47 45.2,47 45.2,43.5 49.5,43.5 49.5,47 47.4,47 		"/>
	</g>
	<g id="XMLID_64_" class="st0">
		<g id="XMLID_57_" class="st3">
			<circle id="XMLID_212_" class="st4" cx="31.6" cy="36.8" r="13.6"/>
			<g id="XMLID_56_">
				<g id="XMLID_206_">
					<path id="XMLID_210_" class="st4" d="M24.5,44.7V41c0-0.3,0.2-0.7,0.5-0.8l4.5-1.5v-2.5"/>
					<path id="XMLID_209_" class="st4" d="M38.5,44.7V41c0-0.3-0.2-0.7-0.5-0.8l-4.5-1.5v-2.5"/>
					<path id="XMLID_208_" class="st4" d="M34.9,30.5c0-1.9-1.5-3.4-3.4-3.4c-1.9,0-3.4,1.5-3.4,3.4l0.3,4.1c0,0.5,0.4,1,0.9,1.3
						l1.6,1.1h1.1l1.7-1.1c0.5-0.3,0.8-0.7,0.9-1.3L34.9,30.5z"/>
					<polyline id="XMLID_207_" class="st4" points="29.5,38.7 30.8,40.2 32.3,40.2 33.6,38.7 					"/>
				</g>
				<line id="XMLID_214_" class="st4" x1="20.7" y1="44.7" x2="42.5" y2="44.7"/>
			</g>
			<polyline id="XMLID_258_" class="st4" points="44.6,53.7 41.3,50.5 43.6,48.1 46.9,51.4 			"/>
			<line id="XMLID_266_" class="st4" x1="40.2" y1="47.1" x2="42.1" y2="48.9"/>
		</g>
		<g id="XMLID_58_" class="st3">
			<path id="XMLID_255_" class="st4" d="M11.1,53.7V10.5c0-0.1,0.1-0.2,0.2-0.2h41.4c0.1,0,0.2,0.1,0.2,0.2v43.3"/>
			<line id="XMLID_254_" class="st4" x1="11.1" y1="18.5" x2="52.9" y2="18.5"/>
			<line id="XMLID_253_" class="st4" x1="14.1" y1="14.2" x2="16.9" y2="14.2"/>
			<line id="XMLID_252_" class="st4" x1="19.3" y1="14.2" x2="22.1" y2="14.2"/>
			<line id="XMLID_251_" class="st4" x1="24.5" y1="14.2" x2="27.4" y2="14.2"/>
		</g>
	</g>
	<g id="XMLID_99_" class="st0">
		<g id="XMLID_97_" class="st3">
			<g id="XMLID_2368_">
				<g id="XMLID_2375_">
					<path id="XMLID_92_" class="st4" d="M34.5,29.3c0-5.8,4.7-10.5,10.5-10.5s10.5,4.7,10.5,10.5S50.8,39.8,45,39.8"/>
				</g>
				<line id="XMLID_89_" class="st4" x1="40.2" y1="32.7" x2="50" y2="32.7"/>
				<path id="XMLID_90_" class="st4" d="M43.2,32.7v2.6c0,1,0.8,1.8,1.8,1.8l0,0c1,0,1.8-0.8,1.8-1.8v-2.6"/>
				<line id="XMLID_91_" class="st4" x1="40.5" y1="27.5" x2="42.2" y2="27.5"/>
				<line id="XMLID_88_" class="st4" x1="47.5" y1="27.5" x2="49.2" y2="27.5"/>
			</g>
			<g id="XMLID_2361_">
				<g id="XMLID_2367_">
					<path id="XMLID_93_" class="st4" d="M19.7,45.2c-6.2,0-11.2-5-11.2-11.2c0-6.2,5-11.2,11.2-11.2c4.5,0,8.4,2.7,10.2,6.5"/>
				</g>
				<g id="XMLID_2366_">
					<path id="XMLID_94_" class="st4" d="M19.3,42.2c-2.3,0-4.2-1.9-4.2-4.2l5.6-0.5"/>
				</g>
				<g id="XMLID_2363_">
					<path id="XMLID_1189_" class="st4" d="M17.7,31.1c0-1-0.8-1.7-1.7-1.7c-0.5,0-0.9,0.2-1.2,0.5c-0.3-0.3-0.8-0.5-1.2-0.5
						c-1,0-1.7,0.8-1.7,1.7c0,0.5,0.2,0.9,0.5,1.2l2.5,2.5l2.5-2.5c0,0,0.1-0.1,0.1-0.1C17.6,31.8,17.7,31.5,17.7,31.1z"/>
				</g>
				<g id="XMLID_2362_">
					<path id="XMLID_903_" class="st4" d="M27.2,31.1c0-1-0.8-1.7-1.7-1.7c-0.5,0-0.9,0.2-1.2,0.5c-0.3-0.3-0.8-0.5-1.2-0.5
						c-1,0-1.7,0.8-1.7,1.7c0,0.5,0.2,0.9,0.5,1.2l2.5,2.5l2.5-2.5c0,0,0.1-0.1,0.1-0.1C27.1,31.9,27.2,31.5,27.2,31.1z"/>
				</g>
			</g>
			<g id="XMLID_2376_">
				<g id="XMLID_2382_">
					<circle id="XMLID_1199_" class="st4" cx="32.2" cy="42.1" r="10.1"/>
				</g>
				<g id="XMLID_82_">
					<path id="XMLID_84_" class="st4" d="M27.3,39.6c0.5-0.5,1.1-0.7,1.8-0.7s1.3,0.3,1.8,0.7"/>
				</g>
				<g id="XMLID_83_">
					<path id="XMLID_87_" class="st4" d="M33.8,39.6c0.5-0.5,1.1-0.7,1.8-0.7c0.7,0,1.3,0.3,1.8,0.7"/>
				</g>
				<g id="XMLID_2379_">
					<path id="XMLID_1198_" class="st4" d="M36.7,44.4c0,2.5-2,4.5-4.5,4.5c-2.5,0-4.5-2-4.5-4.5H36.7z"/>
				</g>
			</g>
		</g>
		<line id="XMLID_102_" class="st2" x1="31.5" y1="11.8" x2="31.5" y2="17"/>
		<line id="XMLID_101_" class="st2" x1="38.1" y1="13" x2="36.3" y2="17.8"/>
		<line id="XMLID_117_" class="st2" x1="19.1" y1="16.4" x2="22.4" y2="20.3"/>
		<line id="XMLID_118_" class="st2" x1="24.9" y1="13" x2="26.7" y2="17.8"/>
	</g>
	<g id="XMLID_132_" class="st0">
		<path id="XMLID_126_" class="st2" d="M39.2,52.9h-5.9c-0.7,0-1.3-0.3-1.8-0.8l-2.6-2.7c-0.4-0.4-0.9-0.6-1.5-0.6h-1.6"/>
		<path id="XMLID_127_" class="st2" d="M38.7,32.7h-2.3c0,0,2.2-5.5,2.2-8c0-1.2,0.3-3.6-0.5-4.7c-0.3-0.5-2.4-0.5-2.7,0
			c0,0-2,6.2-3.3,8c-0.7,1-3.6,4.8-3.6,4.8h-1.7"/>
		<path id="XMLID_302_" class="st2" d="M11.6,29.9h14.3c0.2,0,0.3,0.1,0.3,0.3v21.8c0,0.2-0.1,0.3-0.3,0.3H11.6"/>
		<line id="XMLID_312_" class="st2" x1="36.1" y1="12.1" x2="36.1" y2="14.6"/>
		<line id="XMLID_311_" class="st2" x1="41.9" y1="11.1" x2="39.3" y2="15.5"/>
		<line id="XMLID_313_" class="st2" x1="44" y1="16.6" x2="41.8" y2="17.9"/>
		<line id="XMLID_314_" class="st2" x1="47.6" y1="21.2" x2="42.6" y2="21.2"/>
		<line id="XMLID_315_" class="st2" x1="43.9" y1="25.7" x2="41.7" y2="24.5"/>
		<line id="XMLID_319_" class="st2" x1="28.1" y1="25.7" x2="30.3" y2="24.4"/>
		<line id="XMLID_322_" class="st2" x1="24.5" y1="21.1" x2="29.5" y2="21.1"/>
		<line id="XMLID_325_" class="st2" x1="28.1" y1="16.6" x2="30.4" y2="17.8"/>
		<line id="XMLID_327_" class="st2" x1="30.3" y1="11.1" x2="32.8" y2="15.4"/>
		<path id="XMLID_125_" class="st2" d="M48.4,37.8H43c-1.4,0-2.5-1.1-2.5-2.5l0,0c0-1.4,1.1-2.5,2.5-2.5h5.3c1.4,0,2.5,1.1,2.5,2.5
			l0,0C50.9,36.6,49.8,37.8,48.4,37.8z"/>
		<path id="XMLID_129_" class="st2" d="M48.4,47.9H43c-1.4,0-2.5-1.1-2.5-2.5l0,0c0-1.4,1.1-2.5,2.5-2.5h5.3c1.4,0,2.5,1.1,2.5,2.5
			l0,0C50.9,46.7,49.8,47.9,48.4,47.9z"/>
		<path id="XMLID_130_" class="st2" d="M46.5,52.9H43c-1.4,0-2.5-1.1-2.5-2.5l0,0c0-1.4,1.1-2.5,2.5-2.5h3.5c1.4,0,2.5,1.1,2.5,2.5
			l0,0C49,51.8,47.9,52.9,46.5,52.9z"/>
		<path id="XMLID_128_" class="st2" d="M49.9,42.8H43c-1.4,0-2.5-1.1-2.5-2.5l0,0c0-1.4,1.1-2.5,2.5-2.5h6.9c1.4,0,2.5,1.1,2.5,2.5
			l0,0C52.4,41.7,51.3,42.8,49.9,42.8z"/>
		<path id="XMLID_131_" class="st2" d="M32.2,38.1c0,2.9-2.3,5.2-5.2,5.2"/>
	</g>
	<g id="XMLID_107_" class="st0">
		<path id="XMLID_108_" class="st2" d="M33.2,33.5l-2.5-1.3c-0.2-0.1-0.4-0.1-0.5,0L22,36.6c-0.4,0.2-0.9-0.1-0.8-0.6l1.5-9.2
			c0-0.2,0-0.4-0.2-0.5L15.7,20c-0.3-0.3-0.2-0.9,0.3-0.9l9.2-1.5c0.2,0,0.3-0.1,0.4-0.3l4-8.4c0.2-0.4,0.8-0.4,1,0l4.2,8.3
			c0.1,0.2,0.2,0.3,0.4,0.3l9.2,1.2c0.5,0.1,0.6,0.6,0.3,0.9L43,21.4"/>
		<g id="XMLID_105_" class="st3">
			<path id="XMLID_394_" class="st4" d="M39.2,38.4l0-10.2c0-0.8-0.7-1.5-1.5-1.5l0,0c-0.8,0-1.5,0.7-1.5,1.5v12.5"/>
			<path id="XMLID_393_" class="st4" d="M42.3,35.7V33c0-0.8-0.7-1.5-1.5-1.5l0,0c-0.8,0-1.5,0.7-1.5,1.5v2.6"/>
			<path id="XMLID_392_" class="st4" d="M45.4,38.4v-3.7c0-0.8-0.7-1.5-1.5-1.5l0,0c-0.8,0-1.5,0.7-1.5,1.5v3.7"/>
			<path id="XMLID_106_" class="st4" d="M45.4,37.7v-1.4c0-0.8,0.7-1.5,1.5-1.5l0,0c0.8,0,1.5,0.7,1.5,1.5V45c0,0.4-0.2,0.8-0.4,1.1
				l-1.6,1.5c-0.2,0.2-0.4,0.6-0.4,0.9"/>
			<path id="XMLID_104_" class="st4" d="M36.2,37.8l-2.2,0c-0.6,0-1,0.5-1,1v6.8c0,0.5,0.3,1,0.8,1.3l1.3,0.6
				c0.5,0.2,0.8,0.7,0.8,1.3"/>
			<polyline id="XMLID_388_" class="st4" points="34.5,55.4 34.5,49.2 47.6,49.2 47.6,55.4 			"/>
			<line id="XMLID_378_" class="st4" x1="37.7" y1="20.6" x2="37.7" y2="22.3"/>
			<line id="XMLID_377_" class="st4" x1="40.9" y1="21.4" x2="40" y2="22.9"/>
			<line id="XMLID_376_" class="st4" x1="43.1" y1="23.7" x2="41.6" y2="24.6"/>
			<line id="XMLID_375_" class="st4" x1="43.9" y1="26.9" x2="42.2" y2="26.9"/>
			<line id="XMLID_374_" class="st4" x1="43" y1="30" x2="41.5" y2="29.1"/>
			<line id="XMLID_373_" class="st4" x1="32.2" y1="29.7" x2="33.7" y2="28.9"/>
			<line id="XMLID_372_" class="st4" x1="31.5" y1="26.5" x2="33.2" y2="26.6"/>
			<line id="XMLID_371_" class="st4" x1="32.5" y1="23.4" x2="34" y2="24.4"/>
			<line id="XMLID_370_" class="st4" x1="34.9" y1="21.2" x2="35.7" y2="22.8"/>
		</g>
	</g>
	<g id="XMLID_115_" class="st0">
		<path id="XMLID_142_" class="st2" d="M41.6,32.6h6.4c1,0,1.8,0.8,1.8,1.8v17.5c0,1-0.8,1.8-1.8,1.8H16.1c-1,0-1.8-0.8-1.8-1.8
			V34.3c0-1,0.8-1.8,1.8-1.8h5.8"/>
		<line id="XMLID_141_" class="st2" x1="19.6" y1="53.6" x2="19.6" y2="32.6"/>
		<line id="XMLID_140_" class="st2" x1="17.1" y1="46.5" x2="17.1" y2="39.7"/>
		<line id="XMLID_139_" class="st2" x1="44.4" y1="53.6" x2="44.4" y2="32.6"/>
		<path id="XMLID_112_" class="st2" d="M22.5,29.6h-6.8c-0.1,0-0.2-0.1-0.2-0.2V12.9c0-0.1,0.1-0.2,0.2-0.2h6.8"/>
		<path id="XMLID_111_" class="st2" d="M39.8,30.1V33v3.8c0,0.3-0.4,0.4-0.6,0.2l-3.7-3.6"/>
		<path id="XMLID_286_" class="st2" d="M24.5,10.7v17.6c0,0.2,0.1,0.3,0.3,0.3h4.1v3.1v4.1c0,0.3,0.4,0.5,0.6,0.2l7.7-7.4h11.7
			c0.2,0,0.3-0.1,0.3-0.3V10.7c0-0.2-0.1-0.3-0.3-0.3H24.8C24.7,10.4,24.5,10.5,24.5,10.7z"/>
		<line id="XMLID_113_" class="st2" x1="28.4" y1="14.9" x2="45.4" y2="14.9"/>
		<line id="XMLID_110_" class="st2" x1="28.4" y1="19.8" x2="45.4" y2="19.8"/>
		<line id="XMLID_114_" class="st2" x1="28.4" y1="24.7" x2="37.7" y2="24.7"/>
		<line id="XMLID_120_" class="st2" x1="21.7" y1="42.1" x2="24" y2="42.1"/>
		<line id="XMLID_116_" class="st2" x1="26.2" y1="42.1" x2="28.5" y2="42.1"/>
		<line id="XMLID_121_" class="st2" x1="30.7" y1="42.1" x2="33.1" y2="42.1"/>
		<line id="XMLID_122_" class="st2" x1="35.3" y1="42.1" x2="37.6" y2="42.1"/>
		<line id="XMLID_123_" class="st2" x1="39.8" y1="42.1" x2="42.2" y2="42.1"/>
		<line id="XMLID_146_" class="st2" x1="21.7" y1="46.1" x2="24" y2="46.1"/>
		<line id="XMLID_145_" class="st2" x1="26.2" y1="46.1" x2="28.5" y2="46.1"/>
		<line id="XMLID_143_" class="st2" x1="30.7" y1="46.1" x2="33.1" y2="46.1"/>
		<line id="XMLID_137_" class="st2" x1="35.3" y1="46.1" x2="37.6" y2="46.1"/>
		<line id="XMLID_135_" class="st2" x1="39.8" y1="46.1" x2="42.2" y2="46.1"/>
		<line id="XMLID_152_" class="st2" x1="21.7" y1="50.1" x2="24" y2="50.1"/>
		<line id="XMLID_150_" class="st2" x1="26.5" y1="50.1" x2="37.6" y2="50.1"/>
		<line id="XMLID_147_" class="st2" x1="39.8" y1="50.1" x2="42.2" y2="50.1"/>
	</g>
	<g id="XMLID_203_" class="st0">
		<g id="XMLID_202_" class="st3">
			<path id="XMLID_227_" class="st4" d="M40.9,23.3c0,0.6-0.3,1.2-0.7,1.6c-0.4,0.4-1,0.7-1.6,0.7s-1.2-0.3-1.6-0.7
				c-0.4-0.4-0.7-1-0.7-1.6c0-0.6,0.3-1.2,0.7-1.6c0.4-0.4,1-0.7,1.6-0.7s1.2,0.3,1.6,0.7S40.9,22.7,40.9,23.3z"/>
			<path id="XMLID_226_" class="st4" d="M40.9,14.9c0,0.6-0.3,1.2-0.7,1.6s-1,0.7-1.6,0.7s-1.2-0.3-1.6-0.7c-0.4-0.4-0.7-1-0.7-1.6
				c0-0.6,0.3-1.2,0.7-1.6c0.4-0.4,1-0.7,1.6-0.7s1.2,0.3,1.6,0.7S40.9,14.3,40.9,14.9z"/>
			<path id="XMLID_224_" class="st4" d="M32.9,19.1c0,0.6-0.3,1.2-0.7,1.6c-0.4,0.4-1,0.7-1.6,0.7c-0.6,0-1.2-0.3-1.6-0.7
				c-0.4-0.4-0.7-1-0.7-1.6c0-0.6,0.3-1.2,0.7-1.6c0.4-0.4,1-0.7,1.6-0.7c0.6,0,1.2,0.3,1.6,0.7C32.6,17.9,32.9,18.5,32.9,19.1z"/>
			<line id="XMLID_223_" class="st4" x1="32.5" y1="17.9" x2="36.7" y2="16.1"/>
			<line id="XMLID_222_" class="st4" x1="32.5" y1="20.3" x2="36.7" y2="22.1"/>
		</g>
		<path id="XMLID_213_" class="st2" d="M35.4,42.2l-5.6,3.2c-0.1,0.1-0.2,0-0.2-0.1v-6.5c0-0.1,0.1-0.2,0.2-0.1l5.6,3.2
			C35.5,42,35.5,42.2,35.4,42.2l-5.6,3.2c-0.1,0.1-0.2,0-0.2-0.1v-6.5c0-0.1,0.1-0.2,0.2-0.1l5.6,3.2C35.5,42,35.5,42.2,35.4,42.2z"
			/>
		<path id="XMLID_262_" class="st2" d="M36.6,32.6h11.4c1,0,1.8,0.8,1.8,1.8v17.5c0,1-0.8,1.8-1.8,1.8H16.1c-1,0-1.8-0.8-1.8-1.8
			V34.3c0-1,0.8-1.8,1.8-1.8h8.8"/>
		<line id="XMLID_261_" class="st2" x1="19.6" y1="53.6" x2="19.6" y2="32.6"/>
		<line id="XMLID_260_" class="st2" x1="17.1" y1="46.5" x2="17.1" y2="39.7"/>
		<line id="XMLID_259_" class="st2" x1="44.4" y1="53.6" x2="44.4" y2="32.6"/>
		<path id="XMLID_250_" class="st2" d="M23.5,10.7v17.6c0,0.2,0.1,0.3,0.3,0.3h4.1v3.1v4.1c0,0.3,0.4,0.5,0.6,0.2l7.7-7.4h11.7
			c0.2,0,0.3-0.1,0.3-0.3V10.7c0-0.2-0.1-0.3-0.3-0.3H23.8C23.7,10.4,23.5,10.5,23.5,10.7z"/>
		<line id="XMLID_211_" class="st2" x1="22.6" y1="49.4" x2="29.6" y2="49.4"/>
		<line id="XMLID_205_" class="st2" x1="32.6" y1="49.4" x2="31" y2="49.4"/>
		<line id="XMLID_219_" class="st2" x1="35.1" y1="49.4" x2="33.5" y2="49.4"/>
		<line id="XMLID_221_" class="st2" x1="37.6" y1="49.4" x2="36" y2="49.4"/>
		<line id="XMLID_229_" class="st2" x1="40.1" y1="49.4" x2="38.5" y2="49.4"/>
		<line id="XMLID_217_" class="st2" x1="29.1" y1="51.4" x2="29.1" y2="47.6"/>
	</g>
	<g id="XMLID_182_" class="st0">
		<path id="XMLID_181_" class="st2" d="M45.8,54.1h7.6c0.1,0,0.2-0.1,0.2-0.2V28.1c0-2.3-1.8-4.1-4.1-4.1l0,0V9.9h-4.9V24l0,0
			c-2.3,0-4.1,1.8-4.1,4.1"/>
		<line id="XMLID_503_" class="st2" x1="42.4" y1="13.6" x2="51.7" y2="13.6"/>
		<line id="XMLID_502_" class="st2" x1="42.4" y1="16.7" x2="51.7" y2="16.7"/>
		<polyline id="XMLID_512_" class="st2" points="53.6,34.5 46.7,34.5 46.7,46.9 53.6,46.9 		"/>
		<line id="XMLID_514_" class="st2" x1="49.8" y1="37.8" x2="52.9" y2="37.8"/>
		<line id="XMLID_504_" class="st2" x1="49.8" y1="40.6" x2="52.9" y2="40.6"/>
		<line id="XMLID_515_" class="st2" x1="49.8" y1="43.3" x2="52.9" y2="43.3"/>
		<g id="XMLID_180_" class="st3">
			<path id="XMLID_134_" class="st4" d="M33.3,54.1H10.6c-0.1,0-0.2-0.1-0.2-0.2V34.7c0-0.1,0.1-0.2,0.2-0.2h22.7
				c0.1,0,0.2,0.1,0.2,0.2v19.2C33.5,54,33.4,54.1,33.3,54.1z"/>
			<line id="XMLID_151_" class="st4" x1="10.4" y1="39.6" x2="33.5" y2="39.6"/>
			<line id="XMLID_154_" class="st4" x1="13.1" y1="42.9" x2="15.3" y2="42.9"/>
			<line id="XMLID_138_" class="st4" x1="17" y1="42.9" x2="19.1" y2="42.9"/>
			<line id="XMLID_155_" class="st4" x1="20.9" y1="42.9" x2="23" y2="42.9"/>
			<line id="XMLID_156_" class="st4" x1="24.8" y1="42.9" x2="26.9" y2="42.9"/>
			<line id="XMLID_158_" class="st4" x1="28.6" y1="42.9" x2="30.8" y2="42.9"/>
			<line id="XMLID_166_" class="st4" x1="13.1" y1="46.9" x2="15.3" y2="46.9"/>
			<line id="XMLID_163_" class="st4" x1="17" y1="46.9" x2="19.1" y2="46.9"/>
			<line id="XMLID_162_" class="st4" x1="20.9" y1="46.9" x2="23" y2="46.9"/>
			<line id="XMLID_161_" class="st4" x1="24.8" y1="46.9" x2="26.9" y2="46.9"/>
			<line id="XMLID_160_" class="st4" x1="28.6" y1="46.9" x2="30.8" y2="46.9"/>
			<line id="XMLID_173_" class="st4" x1="13.1" y1="50.9" x2="15.3" y2="50.9"/>
			<line id="XMLID_172_" class="st4" x1="17" y1="50.9" x2="19.1" y2="50.9"/>
			<line id="XMLID_171_" class="st4" x1="20.9" y1="50.9" x2="23" y2="50.9"/>
			<line id="XMLID_170_" class="st4" x1="24.8" y1="50.9" x2="26.9" y2="50.9"/>
			<line id="XMLID_168_" class="st4" x1="28.6" y1="50.9" x2="30.8" y2="50.9"/>
			<line id="XMLID_176_" class="st4" x1="14.7" y1="31.3" x2="14.7" y2="36.9"/>
			<line id="XMLID_174_" class="st4" x1="19.5" y1="31.3" x2="19.5" y2="36.9"/>
			<line id="XMLID_177_" class="st4" x1="24.4" y1="31.3" x2="24.4" y2="36.9"/>
			<line id="XMLID_178_" class="st4" x1="29.2" y1="31.3" x2="29.2" y2="36.9"/>
		</g>
		<path id="XMLID_179_" class="st2" d="M40.3,43.3L40.3,43.3c-2.1,0-3.8-1.7-3.8-3.8V30H44v9.5C44,41.6,42.3,43.3,40.3,43.3z"/>
		<line id="XMLID_183_" class="st2" x1="40.3" y1="43.3" x2="40.3" y2="54.1"/>
		<line id="XMLID_184_" class="st2" x1="35.6" y1="54.1" x2="44.6" y2="54.1"/>
		<g id="XMLID_185_" class="st3">
			<line id="XMLID_187_" class="st4" x1="24.4" y1="12.7" x2="24.4" y2="16.3"/>
			<line id="XMLID_186_" class="st4" x1="28.4" y1="13.8" x2="26.6" y2="16.9"/>
			<line id="XMLID_188_" class="st4" x1="31.4" y1="16.8" x2="28.3" y2="18.6"/>
			<line id="XMLID_189_" class="st4" x1="32.5" y1="20.9" x2="28.9" y2="20.8"/>
			<line id="XMLID_190_" class="st4" x1="31.4" y1="24.9" x2="28.3" y2="23.1"/>
			<line id="XMLID_191_" class="st4" x1="28.4" y1="27.9" x2="26.6" y2="24.7"/>
			<line id="XMLID_192_" class="st4" x1="24.3" y1="29" x2="24.3" y2="25.3"/>
			<line id="XMLID_193_" class="st4" x1="20.3" y1="27.9" x2="22.1" y2="24.7"/>
			<line id="XMLID_194_" class="st4" x1="17.3" y1="24.9" x2="20.5" y2="23.1"/>
			<line id="XMLID_195_" class="st4" x1="16.2" y1="20.8" x2="19.9" y2="20.8"/>
			<line id="XMLID_196_" class="st4" x1="17.3" y1="16.7" x2="20.5" y2="18.6"/>
			<line id="XMLID_197_" class="st4" x1="20.3" y1="13.8" x2="22.1" y2="16.9"/>
		</g>
	</g>
	<g id="XMLID_124_" class="st0">
		<path id="XMLID_201_" class="st2" d="M53.5,13.4h-43c-0.1,0-0.2,0.1-0.2,0.2v26.2c0,0.1,0.1,0.2,0.2,0.2h12.4l8.5,10.2
			c0.4,0.5,1.1,0.5,1.5,0L41,40h12.5c0.1,0,0.2-0.1,0.2-0.2V13.6C53.7,13.5,53.6,13.4,53.5,13.4z"/>
		<path id="XMLID_136_" class="st2" d="M42.5,23.6c0-3.4-2.7-6.1-6.1-6.1c-1.7,0-3.2,0.7-4.4,1.8c-1.1-1.1-2.6-1.8-4.4-1.8
			c-3.4,0-6.1,2.7-6.1,6.1c0,1.6,0.7,3.1,1.7,4.2l8.7,8.7l8.9-8.9c0.1-0.1,0.4-0.4,0.4-0.4C42,26.2,42.5,24.9,42.5,23.6z"/>
		<g id="XMLID_200_" class="st3">
			<path id="XMLID_204_" class="st4" d="M29.9,29.4c0.5,0.5,1.1,0.7,1.8,0.7s1.3-0.3,1.8-0.7c0.5-0.5,0.7-1.1,0.7-1.8
				s-0.3-1.3-0.7-1.8c-0.4-0.4-1-0.7-1.7-0.7c0,0-0.1,0,0-0.1l2.3-2.3c0.1-0.1,0-0.1-0.1-0.1h-4.1"/>
		</g>
	</g>
	<g id="XMLID_265_" class="st0">
		<circle id="XMLID_256_" class="st2" cx="31.7" cy="32.2" r="11.9"/>
		<circle id="XMLID_225_" class="st2" cx="42.1" cy="14.3" r="2.8"/>
		<circle id="XMLID_231_" class="st2" cx="52.2" cy="32" r="2.8"/>
		<circle id="XMLID_236_" class="st2" cx="11.8" cy="32" r="2.8"/>
		<circle id="XMLID_232_" class="st2" cx="41.5" cy="49.7" r="2.8"/>
		<circle id="XMLID_235_" class="st2" cx="21.9" cy="14.3" r="2.8"/>
		<circle id="XMLID_233_" class="st2" cx="21.5" cy="49.7" r="2.8"/>
		<g id="XMLID_244_" class="st3">
			<path id="XMLID_249_" class="st4" d="M24.9,39.7v-3.5c0-0.3,0.2-0.6,0.5-0.7l4.3-1.5v-2.4"/>
			<path id="XMLID_248_" class="st4" d="M38.3,39.7v-3.5c0-0.3-0.2-0.6-0.5-0.7l-4.3-1.5v-2.4"/>
			<path id="XMLID_247_" class="st4" d="M34.8,26.2c0-1.8-1.4-3.2-3.2-3.2s-3.2,1.4-3.2,3.2l0.3,3.9c0,0.5,0.3,1,0.8,1.2l1.6,1h1
				l1.6-1c0.5-0.2,0.8-0.7,0.8-1.2L34.8,26.2z"/>
			<polyline id="XMLID_246_" class="st4" points="29.7,34.1 30.9,35.4 32.4,35.4 33.6,34.1 			"/>
		</g>
		<line id="XMLID_257_" class="st2" x1="38.6" y1="49.7" x2="24.4" y2="49.7"/>
		<line id="XMLID_239_" class="st2" x1="50.8" y1="34.5" x2="43.3" y2="47.5"/>
		<line id="XMLID_238_" class="st2" x1="43.5" y1="16.8" x2="50.8" y2="29.5"/>
		<line id="XMLID_237_" class="st2" x1="24.7" y1="14.3" x2="39.3" y2="14.3"/>
		<line id="XMLID_234_" class="st2" x1="12.9" y1="29.4" x2="20.3" y2="16.7"/>
		<line id="XMLID_228_" class="st2" x1="20.2" y1="47.2" x2="12.9" y2="34.6"/>
		<line id="XMLID_263_" class="st2" x1="25.7" y1="42.6" x2="22.8" y2="47.5"/>
		<line id="XMLID_264_" class="st2" x1="14.6" y1="32" x2="19.8" y2="32"/>
		<line id="XMLID_242_" class="st2" x1="43.5" y1="32" x2="49.4" y2="32"/>
		<line id="XMLID_267_" class="st2" x1="37.7" y1="42.6" x2="40.1" y2="47.2"/>
		<line id="XMLID_268_" class="st2" x1="26.2" y1="21.6" x2="23.5" y2="16.7"/>
		<line id="XMLID_269_" class="st2" x1="40.7" y1="16.7" x2="37.7" y2="21.9"/>
	</g>
	<g id="XMLID_277_" class="st0">
		<path id="XMLID_276_" class="st2" d="M20.3,21.4v-8.5c0-1.1,0.9-2,2-2h19.9c1.1,0,2,0.9,2,2v8.5"/>
		<path id="XMLID_243_" class="st2" d="M44.2,43v8.2c0,1.1-0.9,2-2,2H22.3c-1.1,0-2-0.9-2-2V43"/>
		<line id="XMLID_289_" class="st2" x1="20.3" y1="16.9" x2="44.2" y2="16.9"/>
		<line id="XMLID_288_" class="st2" x1="28.4" y1="14" x2="36.1" y2="14"/>
		<line id="XMLID_287_" class="st2" x1="20.3" y1="47.1" x2="44.2" y2="47.1"/>
		<path id="XMLID_240_" class="st6" d="M41.8,28.9c0.2,1,0.3,2,0.3,3.1c0,1-0.1,2.1-0.3,3.1"/>
		<path id="XMLID_274_" class="st6" d="M45.5,24.2c0.5,1.2,0.9,2.5,1.2,3.8c0.3,1.3,0.4,2.7,0.4,4s-0.1,2.7-0.4,4
			c-0.3,1.3-0.7,2.6-1.2,3.8"/>
		<path id="XMLID_271_" class="st6" d="M47.9,17.9c0.9,1.3,1.7,2.8,2.3,4.3c0.6,1.5,1.1,3.1,1.5,4.7c0.3,1.6,0.5,3.3,0.5,5.1
			c0,1.7-0.2,3.4-0.5,5.1c-0.3,1.6-0.8,3.2-1.5,4.7c-0.6,1.5-1.4,2.9-2.3,4.3"/>
		<path id="XMLID_275_" class="st6" d="M22.2,28.9c-0.2,1-0.3,2-0.3,3.1c0,1,0.1,2.1,0.3,3.1"/>
		<path id="XMLID_273_" class="st6" d="M18.5,24.2c-0.5,1.2-0.9,2.5-1.2,3.8c-0.3,1.3-0.4,2.7-0.4,4s0.1,2.7,0.4,4
			c0.3,1.3,0.7,2.6,1.2,3.8"/>
		<path id="XMLID_272_" class="st6" d="M16.1,17.9c-0.9,1.3-1.7,2.8-2.3,4.3c-0.6,1.5-1.1,3.1-1.5,4.7c-0.3,1.6-0.5,3.3-0.5,5.1
			c0,1.7,0.2,3.4,0.5,5.1c0.3,1.6,0.8,3.2,1.5,4.7c0.6,1.5,1.4,2.9,2.3,4.3"/>
		<circle id="XMLID_294_" class="st2" cx="32.2" cy="31.6" r="3.8"/>
	</g>
	<g id="XMLID_164_" class="st0">
		<path id="XMLID_167_" class="st7" d="M51.4,32.4c1.6-2.1,2.5-4.7,2.5-7.6c0-7.1-5.7-12.8-12.8-12.8c-2.6,0-5,0.8-7.1,2.1"/>
		<path id="XMLID_329_" class="st2" d="M34.1,14.2c-0.7,0.5-1.4,1.1-2.1,1.7c-2.3-2.4-5.5-3.8-9.1-3.8c-7.1,0-12.8,5.7-12.8,12.8
			c0,3.4,1.4,6.6,3.6,8.9l18.3,18.2l18.7-18.6c0.2-0.2,0.7-0.9,0.7-0.9"/>
	</g>
	<g id="XMLID_308_" class="st0">
		<g id="XMLID_304_" class="st3">
			<path id="XMLID_337_" class="st4" d="M29.1,10.6v17.6c0,0.2,0.1,0.3,0.3,0.3h4.1v3.1v4.1c0,0.3,0.4,0.5,0.6,0.2l7.7-7.4h11.7
				c0.2,0,0.3-0.1,0.3-0.3V10.6c0-0.2-0.1-0.3-0.3-0.3H29.5C29.3,10.3,29.1,10.4,29.1,10.6z"/>
			<line id="XMLID_336_" class="st4" x1="33" y1="14.8" x2="50" y2="14.8"/>
			<line id="XMLID_335_" class="st4" x1="33" y1="19.7" x2="50" y2="19.7"/>
			<line id="XMLID_334_" class="st4" x1="33" y1="24.6" x2="42.3" y2="24.6"/>
		</g>
		<path id="XMLID_328_" class="st2" d="M22.3,27.3c0-1.3-1.1-2.4-2.4-2.4c-0.7,0-1.3,0.3-1.7,0.7c-0.4-0.4-1-0.7-1.7-0.7
			c-1.3,0-2.4,1.1-2.4,2.4c0,0.6,0.3,1.2,0.7,1.7l3.5,3.4l3.5-3.5c0,0,0.1-0.2,0.1-0.2C22.1,28.3,22.3,27.8,22.3,27.3z"/>
		<g id="XMLID_306_" class="st3">
			<path id="XMLID_305_" class="st4" d="M16.9,38.5v15.1c0,0.1,0.1,0.2,0.2,0.2h31.5c0.1,0,0.2-0.1,0.2-0.2V30.5"/>
			<line id="XMLID_318_" class="st4" x1="16.9" y1="49.8" x2="49.2" y2="49.8"/>
			<path id="XMLID_316_" class="st4" d="M16.9,45.7c1.2-1.6,3.2-2.7,5.4-2.7c3.7,0,6.7,3,6.7,6.7"/>
			<path id="XMLID_321_" class="st4" d="M26.8,45.7C28,44,30,43,32.1,43c3.7,0,6.7,3,6.7,6.7"/>
			<circle id="XMLID_307_" class="st4" cx="42" cy="37.8" r="3"/>
			<line id="XMLID_323_" class="st4" x1="40.5" y1="46.4" x2="46.2" y2="46.4"/>
		</g>
		<g id="XMLID_966_" class="st3">
			<g id="XMLID_967_">
				<path id="XMLID_2517_" class="st4" d="M26.1,36l-0.8-4.2c0.4-1,0.7-2.1,0.7-3.2c0-4.4-3.6-7.9-7.9-7.9c-4.4,0-7.9,3.6-7.9,7.9
					s3.6,7.9,7.9,7.9c1.5,0,3-0.5,4.2-1.2L26.1,36z"/>
			</g>
		</g>
	</g>
	<g id="XMLID_284_" class="st0">
		<path id="XMLID_350_" class="st2" d="M28.3,10.3v13.8c0,0.1,0.1,0.3,0.3,0.3h3.2v2.4v3.2c0,0.3,0.3,0.4,0.5,0.2l6-5.8h9.2
			c0.1,0,0.3-0.1,0.3-0.3V10.3c0-0.1-0.1-0.3-0.3-0.3H28.5C28.4,10.1,28.3,10.2,28.3,10.3z"/>
		<g id="XMLID_384_" class="st3">
			<path id="XMLID_389_" class="st4" d="M24.3,51.9v-4c0-0.4,0.2-0.7,0.6-0.8l4.9-1.7v-2.8"/>
			<path id="XMLID_387_" class="st4" d="M39.7,51.9v-4c0-0.4-0.2-0.7-0.6-0.8l-4.9-1.7v-2.8"/>
			<path id="XMLID_386_" class="st4" d="M35.7,36.4c0-2.1-1.7-3.7-3.7-3.7c-2.1,0-3.7,1.7-3.7,3.7l0.4,4.5c0,0.6,0.4,1.1,0.9,1.4
				l1.8,1.2h1.2l1.9-1.2c0.5-0.3,0.9-0.8,0.9-1.4L35.7,36.4z"/>
			<polyline id="XMLID_385_" class="st4" points="29.8,45.4 31.2,47 32.9,47 34.3,45.4 			"/>
		</g>
		<path id="XMLID_282_" class="st2" d="M27.4,29.9H13.9c-1.1,0-2,0.9-2,2v19.9c0,1.1,0.9,2,2,2h36.3c1.1,0,2-0.9,2-2V32
			c0-1.1-0.9-2-2-2H39"/>
		<line id="XMLID_296_" class="st2" x1="17.9" y1="53.9" x2="17.9" y2="29.9"/>
		<line id="XMLID_295_" class="st2" x1="15" y1="45.8" x2="15" y2="38.1"/>
		<line id="XMLID_293_" class="st2" x1="46.1" y1="53.9" x2="46.1" y2="29.9"/>
		<line id="XMLID_280_" class="st2" x1="31.6" y1="17" x2="34" y2="17"/>
		<line id="XMLID_279_" class="st2" x1="36.8" y1="17" x2="39.2" y2="17"/>
		<line id="XMLID_283_" class="st2" x1="42" y1="17" x2="44.4" y2="17"/>
	</g>
	<g id="XMLID_366_" class="st0">
		<g id="XMLID_96_" class="st3">
			<g id="XMLID_165_">
				<path id="XMLID_159_" class="st4" d="M40.3,25.6h-17c-0.1,0-0.2-0.1-0.2-0.2V11.6c0-0.1,0.1-0.2,0.2-0.2h17
					c0.1,0,0.2,0.1,0.2,0.2v13.8C40.6,25.5,40.4,25.6,40.3,25.6z"/>
				<path id="XMLID_98_" class="st4" d="M35.1,18.7l-6.5,3.7c-0.1,0.1-0.3,0-0.3-0.2v-7.5c0-0.1,0.1-0.2,0.3-0.2l6.5,3.7
					C35.3,18.4,35.3,18.6,35.1,18.7l-6.5,3.7c-0.1,0.1-0.3,0-0.3-0.2v-7.5c0-0.1,0.1-0.2,0.3-0.2l6.5,3.7
					C35.3,18.4,35.3,18.6,35.1,18.7z"/>
			</g>
			<g id="XMLID_72_">
				<path id="XMLID_363_" class="st4" d="M42.9,22.1h11.8c0.1,0,0.2,0.1,0.2,0.2v14.5c0,0.1-0.1,0.2-0.2,0.2h-3.3"/>
				<polyline id="XMLID_144_" class="st4" points="43.2,32.2 45.1,30.2 48.4,33.1 54.9,33.1 				"/>
				<line id="XMLID_95_" class="st4" x1="48.1" y1="26.3" x2="51.3" y2="26.3"/>
			</g>
			<g id="XMLID_358_">
				<path id="XMLID_100_" class="st4" d="M11.9,38.1H9.3c-0.1,0-0.2-0.1-0.2-0.2V23.3c0-0.1,0.1-0.2,0.2-0.2h11.8"/>
				<polyline id="XMLID_74_" class="st4" points="12.1,33.2 15.1,33.2 15.1,28 21.4,28 21.4,33.2 18.3,33.2 				"/>
			</g>
			<g id="XMLID_55_">
				<path id="XMLID_69_" class="st4" d="M36.5,34.4c-1.1-1.7-3.1-2.9-5.3-2.9c-1.2,0-2.3,0.3-3.2,0.9"/>
				<path id="XMLID_67_" class="st4" d="M23.1,33.7c1.5,0,2.7,1.2,2.7,2.7"/>
				<path id="XMLID_62_" class="st4" d="M8.9,41.9h4.3c0-2.1,1.7-3.9,3.9-3.9H18c0.4-2.5,2.5-4.4,5.1-4.4c0.5,0,0.9,0.1,1.3,0.2
					c1-3.1,3.8-5.3,7.2-5.3c3.8,0,6.9,2.8,7.4,6.4c0.9-0.5,1.9-0.9,3-0.9c2.5,0,4.6,1.7,5.3,4h0.2c2.1,0,3.9,1.7,3.9,3.9h3.8"/>
			</g>
		</g>
		<polyline id="XMLID_380_" class="st2" points="26.4,43.5 30.9,48 39.9,39 		"/>
		<path id="XMLID_368_" class="st2" d="M37.3,46c0,3.7-3,6.6-6.6,6.6c-3.7,0-6.6-3-6.6-6.6c0-3.7,3-6.6,6.6-6.6
			c1.2,0,2.3,0.3,3.2,0.8"/>
	</g>
	<g id="XMLID_364_" class="st0">
		<path id="XMLID_518_" class="st2" d="M15.1,46.1v-35c0-0.1,0.1-0.2,0.2-0.2h35.5c0.1,0,0.2,0.1,0.2,0.2v35"/>
		<line id="XMLID_517_" class="st2" x1="15.1" y1="16.6" x2="50.9" y2="16.6"/>
		<line id="XMLID_362_" class="st2" x1="17.6" y1="13.8" x2="19.9" y2="13.8"/>
		<line id="XMLID_361_" class="st2" x1="21.7" y1="13.8" x2="24" y2="13.8"/>
		<line id="XMLID_506_" class="st2" x1="25.9" y1="13.8" x2="28.1" y2="13.8"/>
		<g id="XMLID_446_" class="st3">
			<path id="XMLID_451_" class="st4" d="M54.6,48.4v4.2c0,0.2-0.1,0.3-0.3,0.3H13l-3.5-2.2c-0.2-0.1-0.2-0.3,0-0.4l3.5-2.2h41.4
				C54.5,48.1,54.6,48.2,54.6,48.4z"/>
			<line id="XMLID_450_" class="st4" x1="50" y1="53.1" x2="50" y2="47.9"/>
			<line id="XMLID_448_" class="st4" x1="13.8" y1="53.1" x2="13.8" y2="47.9"/>
		</g>
		<path id="XMLID_405_" class="st2" d="M46.5,45.2H18.9c-0.1,0-0.2-0.1-0.2-0.2v-7.3c0-0.1,0.1-0.2,0.2-0.2h27.6
			c0.1,0,0.2,0.1,0.2,0.2V45C46.6,45.1,46.6,45.2,46.5,45.2z"/>
		<g id="XMLID_402_" class="st3">
			<polyline id="XMLID_404_" class="st4" points="19.4,23.7 19.4,21.4 26.3,21.4 26.3,23.7 			"/>
			<line id="XMLID_403_" class="st4" x1="22.9" y1="21.5" x2="22.9" y2="29.5"/>
		</g>
		<line id="XMLID_417_" class="st2" x1="29.3" y1="21.4" x2="46.6" y2="21.4"/>
		<line id="XMLID_360_" class="st2" x1="29.3" y1="25.5" x2="46.6" y2="25.5"/>
		<line id="XMLID_418_" class="st2" x1="29.3" y1="29.6" x2="46.6" y2="29.6"/>
		<line id="XMLID_419_" class="st2" x1="18.4" y1="33.7" x2="46.6" y2="33.7"/>
	</g>
	<g id="XMLID_367_" class="st0">
		<path id="XMLID_439_" class="st2" d="M46.3,30.5C46.4,40.8,33.7,52.6,32.2,54c-0.1,0.1-0.2,0.1-0.3,0
			c-1.5-1.4-14.3-13.2-14.2-23.5c0.1-7.9,6.4-14.3,14.3-14.3C39.9,16.2,46.3,22.6,46.3,30.5z"/>
		<path id="XMLID_452_" class="st7" d="M17.4,45.3c-3.7-3.7-6.1-8.9-6.1-14.6c0-5.7,2.3-10.9,6.1-14.6S26.3,10,32,10
			c5.7,0,10.9,2.3,14.6,6.1c3.7,3.7,6.1,8.9,6.1,14.6c0,5.7-2.3,10.9-6.1,14.6"/>
		<path id="XMLID_438_" class="st2" d="M36,37.5l-4-2.2l-4,2.1c-0.5,0.3-1.1-0.2-1-0.7l0.8-4.5l-3.2-3.2c-0.4-0.4-0.2-1.1,0.4-1.1
			l4.5-0.6l2-4.1c0.3-0.5,1-0.5,1.2,0l2,4.1l4.5,0.7c0.5,0.1,0.8,0.8,0.4,1.1l-3.3,3.1l0.7,4.5C37,37.4,36.4,37.8,36,37.5z"/>
		<line id="XMLID_215_" class="st7" x1="32" y1="39.4" x2="32" y2="42.1"/>
		<line id="XMLID_169_" class="st7" x1="32" y1="43.4" x2="32" y2="46.1"/>
		<line id="XMLID_216_" class="st7" x1="32" y1="47.4" x2="32" y2="50.1"/>
	</g>
	<g id="XMLID_395_" class="st0">
		<path id="XMLID_379_" class="st2" d="M51.3,51.4H12.7c-0.1,0-0.2-0.1-0.2-0.2V30.3c0-0.1,0.2-0.2,0.3-0.1l13.4,10.4h11.6
			l13.4-10.4c0.1-0.1,0.3,0,0.3,0.1v20.9C51.5,51.3,51.4,51.4,51.3,51.4z"/>
		<path id="XMLID_382_" class="st2" d="M46.9,31.1V12.7c0-0.1-0.1-0.2-0.2-0.2H17.2c-0.1,0-0.2,0.1-0.2,0.2v18.3"/>
		<line id="XMLID_383_" class="st2" x1="12.8" y1="30.2" x2="17.1" y2="27.4"/>
		<line id="XMLID_390_" class="st2" x1="46.8" y1="27.4" x2="51.1" y2="30.2"/>
		<g id="XMLID_391_" class="st3">
			<circle id="XMLID_381_" class="st4" cx="32" cy="25.3" r="3.2"/>
			<path id="XMLID_397_" class="st4" d="M35,32.4c-0.9,0.4-1.9,0.6-3,0.6c-1.1,0-2.1-0.2-3-0.6c-0.9-0.4-1.8-1-2.5-1.7
				c-0.7-0.7-1.3-1.5-1.7-2.5c-0.4-0.9-0.6-1.9-0.6-3c0-1.1,0.2-2.1,0.6-3c0.4-0.9,1-1.8,1.7-2.5c0.7-0.7,1.5-1.3,2.5-1.7
				c0.9-0.4,1.9-0.6,3-0.6c1.1,0,2.1,0.2,3,0.6c0.9,0.4,1.8,1,2.5,1.7c0.7,0.7,1.3,1.5,1.7,2.5c0.4,0.9,0.6,1.9,0.6,3"/>
			<path id="XMLID_396_" class="st4" d="M39.7,25.2v1.5c0,1.3-1,2.3-2.3,2.3l0,0c-1.3,0-2.3-1-2.3-2.3v-0.5"/>
		</g>
	</g>
	<g id="XMLID_411_">
		<path id="XMLID_437_" class="st4" d="M35.8,37.7l-6.2,3.6c-0.1,0.1-0.3,0-0.3-0.1V34c0-0.1,0.1-0.2,0.3-0.1l6.2,3.6
			C35.9,37.5,35.9,37.6,35.8,37.7l-6.2,3.6c-0.1,0.1-0.3,0-0.3-0.1V34c0-0.1,0.1-0.2,0.3-0.1l6.2,3.6C35.9,37.5,35.9,37.6,35.8,37.7
			z"/>
		<path id="XMLID_408_" class="st4" d="M23.5,24.2H11.8c-1.2,0-2.3,1-2.3,2.3v22.2c0,1.2,1,2.3,2.3,2.3h40.4c1.2,0,2.3-1,2.3-2.3
			V26.5c0-1.2-1-2.3-2.3-2.3H40.9"/>
		<line id="XMLID_424_" class="st4" x1="16.4" y1="50.9" x2="16.4" y2="24.2"/>
		<line id="XMLID_422_" class="st4" x1="13.1" y1="41.8" x2="13.1" y2="33.3"/>
		<line id="XMLID_421_" class="st4" x1="47.7" y1="50.9" x2="47.7" y2="24.2"/>
		<path id="XMLID_416_" class="st8" d="M28.6,24.7c1.1-0.2,2.2-0.3,3.4-0.3c1.2,0,2.3,0.1,3.4,0.3"/>
		<path id="XMLID_415_" class="st8" d="M23.3,20.6c1.3-0.6,2.7-1,4.2-1.3c1.5-0.3,3-0.5,4.5-0.5c1.5,0,3,0.2,4.5,0.5
			c1.5,0.3,2.8,0.7,4.2,1.3"/>
		<path id="XMLID_413_" class="st8" d="M16.3,17.9c1.5-1,3.1-1.9,4.8-2.6c1.7-0.7,3.4-1.3,5.3-1.6c1.8-0.4,3.7-0.6,5.7-0.6
			c1.9,0,3.8,0.2,5.7,0.6c1.8,0.4,3.6,0.9,5.3,1.6c1.7,0.7,3.3,1.6,4.8,2.6"/>
		<path id="XMLID_449_" class="st4" d="M21.8,37.5c0-5.2,4.2-9.4,9.4-9.4c5.2,0,9.4,4.2,9.4,9.4c0,5.2-4.2,9.4-9.4,9.4"/>
		<path id="XMLID_407_" class="st9" d="M31.3,47c-5.2,0-9.4-4.2-9.4-9.4"/>
	</g>
	<g id="XMLID_461_" class="st0">
		<path id="XMLID_447_" class="st2" d="M35.2,10.8v13.8c0,0.1,0.1,0.3,0.3,0.3h3.2v2.4v3.2c0,0.3,0.3,0.4,0.5,0.2l6-5.8h9.2
			c0.1,0,0.3-0.1,0.3-0.3V10.8c0-0.1-0.1-0.3-0.3-0.3H35.5C35.3,10.5,35.2,10.6,35.2,10.8z"/>
		<g id="XMLID_436_" class="st3">
			<path id="XMLID_444_" class="st4" d="M24.3,51.4v-4c0-0.4,0.2-0.7,0.6-0.8l4.9-1.7v-2.8"/>
			<path id="XMLID_443_" class="st4" d="M39.6,51.4v-4c0-0.4-0.2-0.7-0.6-0.8l-4.9-1.7v-2.8"/>
			<path id="XMLID_441_" class="st4" d="M35.7,35.8c0-2.1-1.7-3.7-3.7-3.7c-2.1,0-3.7,1.7-3.7,3.7l0.4,4.5c0,0.6,0.4,1.1,0.9,1.4
				l1.8,1.2h1.2l1.9-1.2c0.5-0.3,0.9-0.8,0.9-1.4L35.7,35.8z"/>
			<polyline id="XMLID_440_" class="st4" points="29.8,44.8 31.2,46.4 32.8,46.4 34.2,44.8 			"/>
		</g>
		<g id="XMLID_412_" class="st3">
			<path id="XMLID_435_" class="st4" d="M10.9,51.4v-4c0-0.4,0.2-0.7,0.6-0.8l4.9-1.7v-2.8"/>
			<polyline id="XMLID_434_" class="st4" points="22.7,45.5 20.7,44.8 20.7,42.1 			"/>
			<path id="XMLID_433_" class="st4" d="M22.3,35.8c0-2.1-1.7-3.7-3.7-3.7c-2.1,0-3.7,1.7-3.7,3.7l0.4,4.5c0,0.6,0.4,1.1,0.9,1.4
				l1.8,1.2h1.2l1.9-1.2c0.5-0.3,0.9-0.8,0.9-1.4L22.3,35.8z"/>
			<polyline id="XMLID_432_" class="st4" points="16.4,44.8 17.8,46.4 19.4,46.4 20.8,44.8 			"/>
		</g>
		<g id="XMLID_454_" class="st3">
			<path id="XMLID_458_" class="st4" d="M53,51.4v-4c0-0.4-0.2-0.7-0.6-0.8l-4.9-1.7v-2.8"/>
			<polyline id="XMLID_457_" class="st4" points="41.3,45.5 43.2,44.8 43.2,42.1 			"/>
			<path id="XMLID_456_" class="st4" d="M41.6,35.8c0-2.1,1.7-3.7,3.7-3.7c2.1,0,3.7,1.7,3.7,3.7l-0.4,4.5c0,0.6-0.4,1.1-0.9,1.4
				L46,42.9h-1.2l-1.9-1.2c-0.5-0.3-0.9-0.8-0.9-1.4L41.6,35.8z"/>
			<polyline id="XMLID_455_" class="st4" points="47.5,44.8 46.1,46.4 44.5,46.4 43.1,44.8 			"/>
		</g>
		<line id="XMLID_431_" class="st2" x1="38.5" y1="17.5" x2="40.9" y2="17.5"/>
		<line id="XMLID_429_" class="st2" x1="43.7" y1="17.5" x2="46.1" y2="17.5"/>
		<line id="XMLID_427_" class="st2" x1="49" y1="17.5" x2="51.3" y2="17.5"/>
		<path id="XMLID_462_" class="st2" d="M29.7,10.8v13.8c0,0.1-0.1,0.3-0.3,0.3h-3.2v2.4v3.2c0,0.3-0.3,0.4-0.5,0.2l-6-5.8h-9.2
			c-0.1,0-0.3-0.1-0.3-0.3V10.8c0-0.1,0.1-0.3,0.3-0.3h18.9C29.5,10.5,29.7,10.6,29.7,10.8z"/>
		<line id="XMLID_459_" class="st2" x1="26.2" y1="13.8" x2="13.6" y2="13.8"/>
		<line id="XMLID_453_" class="st2" x1="26.2" y1="17.7" x2="13.6" y2="17.7"/>
		<line id="XMLID_460_" class="st2" x1="20.8" y1="21.5" x2="13.6" y2="21.5"/>
		<line id="XMLID_463_" class="st2" x1="8" y1="53.5" x2="56" y2="53.5"/>
	</g>
	<g id="XMLID_466_" class="st0">
		<path id="XMLID_465_" class="st2" d="M41,51.2H19.6c-0.1,0-0.1-0.1-0.2-0.1l-3.8-21.4c0-0.1,0.1-0.2,0.2-0.2h29.1
			c0.1,0,0.2,0.1,0.2,0.2l-3.8,21.4C41.2,51.2,41.1,51.2,41,51.2z"/>
		<path id="XMLID_467_" class="st2" d="M44,49h3.6l0,0c0,3-2.4,5.5-5.5,5.5H18.5c-3,0-5.5-2.4-5.5-5.5l0,0h3.6"/>
		<path id="XMLID_468_" class="st2" d="M44.6,35.2h2.1c2.4,0,4.4,2,4.4,4.4l0,0c0,2.4-2,4.4-4.4,4.4h-3.8"/>
		<path id="XMLID_472_" class="st2" d="M26.5,27c0-1.9,1.5-3.4,3.4-3.4s3.4,1.5,3.4,3.4"/>
		<path id="XMLID_469_" class="st2" d="M24.4,21.4c1.4-1.4,3.4-2.3,5.5-2.3c2.2,0,4.1,0.9,5.5,2.3"/>
		<path id="XMLID_470_" class="st2" d="M21.1,18.1c2.3-2.3,5.4-3.7,8.9-3.7c3.5,0,6.6,1.4,8.9,3.7"/>
		<path id="XMLID_471_" class="st7" d="M17.6,14.6c3.2-3.2,7.5-5.1,12.3-5.1c4.8,0,9.2,2,12.3,5.1"/>
	</g>
	<g id="XMLID_297_" class="st0">
		<path id="XMLID_241_" class="st2" d="M32,14.9L32,14.9c-6.5,0-11.7,5.3-11.7,11.7V33c0,2.4-1.9,4.3-4.3,4.3h-0.8
			c-0.1,0-0.2,0.1-0.2,0.2v8.4c0,0.1,0.1,0.2,0.2,0.2h33.6c0.1,0,0.2-0.1,0.2-0.2v-8.4c0-0.1-0.1-0.2-0.2-0.2H48
			c-2.4,0-4.3-1.9-4.3-4.3v-3.8"/>
		<path id="XMLID_220_" class="st2" d="M37.3,46.1c0,3-2.5,5.5-5.5,5.5s-5.5-2.5-5.5-5.5"/>
		<circle id="XMLID_218_" class="st2" cx="41.6" cy="19.8" r="7.4"/>
		<line id="XMLID_281_" class="st2" x1="36.3" y1="19.8" x2="38.4" y2="19.8"/>
		<line id="XMLID_245_" class="st2" x1="40.3" y1="19.8" x2="42.4" y2="19.8"/>
		<line id="XMLID_291_" class="st2" x1="44.3" y1="19.8" x2="46.4" y2="19.8"/>
	</g>
</g>
<g id="Icon_text" class="st0">
	<g id="XMLID_9_" class="st3">
		<text id="XMLID_479_" transform="matrix(1 0 0 1 -160.0687 -78.3334)"><tspan x="0" y="0" class="st10 st11 st12">MALE</tspan><tspan x="-4.7" y="7" class="st10 st11 st12">AVATAR</tspan></text>
	</g>
	<g id="XMLID_21_" class="st3">
		<text id="XMLID_480_" transform="matrix(1 0 0 1 -73.4801 -78.3335)"><tspan x="0" y="0" class="st10 st11 st12">FEMALE</tspan><tspan x="-0.2" y="7" class="st10 st11 st12">AVATAR</tspan></text>
	</g>
	<g id="XMLID_49_" class="st3">
		<text id="XMLID_481_" transform="matrix(1 0 0 1 16.5339 -78.3334)"><tspan x="0" y="0" class="st10 st11 st12">FOLLOW</tspan><tspan x="10.6" y="7" class="st10 st11 st12">US</tspan></text>
	</g>
	<g id="XMLID_51_" class="st3">
		<text id="XMLID_482_" transform="matrix(1 0 0 1 105.5289 -78.3332)"><tspan x="0" y="0" class="st10 st11 st12">CONTENT</tspan><tspan x="1" y="7" class="st10 st11 st12">SHARING</tspan></text>
	</g>
	<g id="XMLID_78_" class="st3">
		<text id="XMLID_483_" transform="matrix(1 0 0 1 205.4049 -78.3334)"><tspan x="0" y="0" class="st10 st11 st12">FIND</tspan><tspan x="-7.1" y="7" class="st10 st11 st12">FRIENDS</tspan></text>
	</g>
	<g id="XMLID_103_" class="st3">
		<text id="XMLID_484_" transform="matrix(1 0 0 1 -161.4581 18.1668)" class="st10 st11 st12">EMOJI</text>
	</g>
	<g id="XMLID_133_" class="st3">
		<text id="XMLID_485_" transform="matrix(1 0 0 1 -78.0339 18.1668)" class="st10 st11 st12">THUMB UP</text>
	</g>
	<g id="XMLID_109_" class="st3">
		<text id="XMLID_486_" transform="matrix(1 0 0 1 109.3117 18.1667)"><tspan x="0" y="0" class="st10 st11 st12">ADD TO</tspan><tspan x="-4.2" y="7" class="st10 st11 st12">FAVORITE</tspan></text>
	</g>
	<g id="XMLID_149_" class="st3">
		<text id="XMLID_487_" transform="matrix(1 0 0 1 15.6489 18.1665)" class="st10 st11 st12">CHATING</text>
	</g>
	<g id="XMLID_198_" class="st3">
		<text id="XMLID_488_" transform="matrix(1 0 0 1 200.0392 18.1666)" class="st10 st11 st12">EVENTS</text>
	</g>
	<g id="XMLID_199_" class="st3">
		<text id="XMLID_489_" transform="matrix(1 0 0 1 -159.8973 113.5)" class="st10 st11 st12">LIKES</text>
	</g>
	<g id="XMLID_230_" class="st3">
		<text id="XMLID_490_" transform="matrix(1 0 0 1 -70.1817 113.4997)"><tspan x="0" y="0" class="st10 st11 st12">VIDEO</tspan><tspan x="-5.3" y="7" class="st10 st11 st12">SHARING</tspan></text>
	</g>
	<g id="XMLID_270_" class="st3">
		<text id="XMLID_492_" transform="matrix(1 0 0 1 18.8162 113.4997)"><tspan x="0" y="0" class="st10 st11 st12">SOCIAL</tspan><tspan x="-5.3" y="7" class="st10 st11 st12">NETWORK</tspan></text>
	</g>
	<g id="XMLID_278_" class="st3">
		<text id="XMLID_493_" transform="matrix(1 0 0 1 113.5256 113.4997)"><tspan x="0" y="0" class="st10 st11 st12">WI-FI</tspan><tspan x="-7.6" y="7" class="st10 st11 st12">HOTSPOT</tspan></text>
	</g>
	<g id="XMLID_309_" class="st3">
		<text id="XMLID_511_" transform="matrix(1 0 0 1 200.9904 113.4993)"><tspan x="0" y="0" class="st10 st11 st12">PHOTO</tspan><tspan x="-3.7" y="7" class="st10 st11 st12">TAGGING</tspan></text>
	</g>
	<g id="XMLID_290_" class="st3">
		<text id="XMLID_513_" transform="matrix(1 0 0 1 -161.2725 209.8336)"><tspan x="0" y="0" class="st10 st11 st12">VIDEO</tspan><tspan x="-18" y="7" class="st10 st11 st12">CONVERSATION</tspan></text>
	</g>
	<g id="XMLID_359_" class="st3">
		<text id="XMLID_516_" transform="matrix(1 0 0 1 -71.7037 209.8336)"><tspan x="0" y="0" class="st10 st11 st12">CLOUD</tspan><tspan x="-12.2" y="7" class="st10 st11 st12">COPMPUTING</tspan></text>
	</g>
	<g id="XMLID_365_" class="st3">
		<text id="XMLID_519_" transform="matrix(1 0 0 1 13.0729 209.8336)" class="st10 st11 st12">BLOGGING</text>
	</g>
	<g id="XMLID_369_" class="st3">
		<text id="XMLID_520_" transform="matrix(1 0 0 1 104.1703 209.834)" class="st10 st11 st12">LOCATION</text>
	</g>
	<g id="XMLID_401_" class="st3">
		<text id="XMLID_521_" transform="matrix(1 0 0 1 201.2154 209.8333)" class="st10 st11 st12">E-MAIL</text>
	</g>
	<g id="XMLID_420_" class="st3">
		<text id="XMLID_522_" transform="matrix(1 0 0 1 24.4125 305.1673)"><tspan x="0" y="0" class="st10 st11 st12">LIVE</tspan><tspan x="-13.9" y="7" class="st10 st11 st12">STREAMING</tspan></text>
	</g>
	<g id="XMLID_464_" class="st3">
		<text id="XMLID_523_" transform="matrix(1 0 0 1 109.6595 305.1676)" class="st10 st11 st12">FORUM</text>
	</g>
	<g id="XMLID_473_" class="st3">
		<text id="XMLID_524_" transform="matrix(1 0 0 1 -159.2577 305.1679)"><tspan x="0" y="0" class="st10 st11 st12">FREE</tspan><tspan x="-0.5" y="7" class="st10 st11 st12">WI-FI</tspan></text>
	</g>
	<g id="XMLID_148_" class="st3">
		<text id="XMLID_525_" transform="matrix(1 0 0 1 -71.1788 305.1679)" class="st10 st11 st12">HEART</text>
	</g>
	<g id="XMLID_491_" class="st3">
		<text id="XMLID_526_" transform="matrix(1 0 0 1 187.7898 305.1676)" class="st10 st11 st12">NOTIFICATION</text>
	</g>
</g>
<g id="headline" class="st0">
	<circle id="XMLID_61_" class="st13" cx="-133.5" cy="-208.4" r="18.3"/>
	<circle id="XMLID_60_" class="st14" cx="-110.1" cy="-208.4" r="18.3"/>
	<circle id="XMLID_63_" class="st15" cx="-122.7" cy="-190.1" r="18.3"/>
	<g id="XMLID_4_" class="st3">
		<text id="XMLID_527_" transform="matrix(1 0 0 1 -183.7552 -194.0852)"><tspan x="0" y="0" style="fill:#231F20; font-family:'Oswald-Bold'; font-size:22.512px;">FLAT </tspan><tspan x="45.5" y="0" style="fill:#231F20; font-family:'Oswald-Light'; font-size:22.512px;">LINE </tspan><tspan x="83.9" y="0" style="fill:#231F20; font-family:'Oswald-Bold'; font-size:22.512px;">ICONS</tspan></text>
	</g>
	<g id="XMLID_1_" class="st3">
		
			<text id="XMLID_528_" transform="matrix(1 0 0 1 82.3995 -193.9056)" style="fill:#231F20; font-family:'Oswald-Light'; font-size:16.1735px;">SOCIAL MEDIA &amp; NETWORK</text>
	</g>
</g>
</svg>
